PathFileType	4	(X/Y/Z)	./resultDataOpenSim/trcMotMarkerGrf/sub09/qtm-02-04.trc
DataRate	CameraRate	NumFrames	NumMarkers	Units	OrigDataRate	OrigDataStartFrame	OrigNumFrames
250.000000	250.000000	8	24	m	250.000000	231	461
Frame#	Time	L.Toe.Tip			R.Toe.Tip			L.Ankle.Lat			R.Ankle.Lat			L.Ankle.Med			R.Ankle.Med			L.Heel			R.Heel			L.Knee.Lat			R.Knee.Lat			L.Knee.Med			R.Knee.Med			L.Thigh.Upper			R.Thigh.Upper			L.ASIS			R.ASIS			V.Sacral			L.Acromium			R.Acromium			C7			L.Elbow			R.Elbow			L.Wrist.Lat			R.Wrist.Lat
		X1	Y1	Z1	X2	Y2	Z2	X3	Y3	Z3	X4	Y4	Z4	X5	Y5	Z5	X6	Y6	Z6	X7	Y7	Z7	X8	Y8	Z8	X9	Y9	Z9	X10	Y10	Z10	X11	Y11	Z11	X12	Y12	Z12	X13	Y13	Z13	X14	Y14	Z14	X15	Y15	Z15	X16	Y16	Z16	X17	Y17	Z17	X18	Y18	Z18	X19	Y19	Z19	X20	Y20	Z20	X21	Y21	Z21	X22	Y22	Z22	X23	Y23	Z23	X24	Y24	Z24

231	0.92	0.22945982	0.015625036	0.017092388	0.44333224	0.09811199	0.14274309	0.078353083	0.056957724	-0.019838631	0.29974246	0.13137829	0.15953076	0.10574494	0.078839278	0.072772258	0.32532408	0.15893979	0.066026372	0.0092081032	0.027073223	0.028873136	0.23426345	0.11110028	0.10477259	0.15907362	0.46373776	-0.087815645	0.45184044	0.55866463	0.1816213	0.16089854	0.46764704	0.038722178	0.44648013	0.54017787	0.056561085	0.21156854	0.88530984	-0.14935019	0.22831927	0.89862323	0.22062163	0.3052063	0.96789182	-0.092501358	0.30286987	0.98144681	0.14552356	0.14264505	1.0324968	0.026848546	0.31317984	1.4259449	-0.12985528	0.28285713	1.4368249	0.19704876	0.23272192	1.4814567	0.029515205	0.18613459	1.0753057	-0.20804517	0.1110146	1.1201242	0.29041115	0.40121318	0.90723047	-0.2034882	0.22540638	0.87224407	0.31304437
232	0.924	0.22947665	0.015582017	0.017080541	0.46421697	0.098145866	0.14229548	0.078198421	0.057290789	-0.019037579	0.31990813	0.12763014	0.1589098	0.10626284	0.079094409	0.073364985	0.34462275	0.15611075	0.065626516	0.0093264408	0.027562899	0.030117197	0.25518658	0.1058348	0.10387356	0.15993101	0.46382976	-0.087539532	0.46059538	0.55952318	0.18169602	0.16283178	0.46770728	0.038596169	0.4551942	0.5407865	0.056848368	0.21739906	0.88493218	-0.1489454	0.23494945	0.89792545	0.22087335	0.31130973	0.96702143	-0.092601928	0.3094375	0.98071111	0.14549722	0.14894935	1.0317159	0.027074417	0.31937065	1.4252987	-0.12993798	0.28915209	1.436022	0.19701314	0.23886432	1.4806846	0.029337824	0.19304026	1.0740906	-0.20805618	0.11724663	1.1195445	0.29044332	0.41010943	0.90845739	-0.20270442	0.23135059	0.87165021	0.31381203
233	0.928	0.22949572	0.015535251	0.017076668	0.48511387	0.098160307	0.14177271	0.078085258	0.057623198	-0.018283327	0.33989954	0.12406276	0.15834231	0.10675571	0.079321014	0.073935057	0.36395049	0.15340001	0.065249377	0.0094469859	0.028046127	0.03126858	0.27619011	0.10075654	0.10298525	0.16100819	0.46388465	-0.087297445	0.46921875	0.5602355	0.18183	0.1649424	0.46775919	0.03849541	0.46381848	0.54119314	0.05720342	0.22292305	0.88446156	-0.14848349	0.24156853	0.89714219	0.22112863	0.3173966	0.96606211	-0.092691573	0.31601637	0.97987813	0.14548069	0.15524987	1.0308618	0.027311314	0.32557808	1.4245744	-0.13002057	0.29544875	1.4351411	0.19697821	0.2449837	1.4798563	0.029190052	0.19996606	1.072805	-0.20805391	0.12348778	1.1188587	0.29046019	0.41896581	0.9095966	-0.20192944	0.23730274	0.87096912	0.31458208
234	0.932	0.22951286	0.015489985	0.017074795	0.50598405	0.098184034	0.14118903	0.078013418	0.057956392	-0.017587215	0.35975065	0.12068994	0.15784751	0.10722929	0.079519247	0.07446694	0.38331071	0.15080941	0.064875478	0.0095551038	0.028521035	0.032288749	0.29705159	0.095940117	0.10228495	0.16238141	0.46389021	-0.087130324	0.47769802	0.56080191	0.18202534	0.16716704	0.46779718	0.038469186	0.47230408	0.54143238	0.057630455	0.22822104	0.8838502	-0.1480139	0.24818168	0.89628094	0.22138938	0.32346434	0.9650145	-0.092769872	0.32259927	0.97894894	0.14546847	0.16153608	1.0299317	0.027564159	0.33180299	1.4237723	-0.13009911	0.30175313	1.4341879	0.19694536	0.25112727	1.4789614	0.029115349	0.2068959	1.0714464	-0.2080359	0.12974411	1.1180639	0.29046015	0.42777746	0.91064962	-0.20116419	0.24325732	0.87019841	0.31535241
235	0.936	0.22952339	0.015451342	0.017069648	0.52678249	0.09825325	0.14056016	0.077979618	0.058278225	-0.016956275	0.37965016	0.11748864	0.15739607	0.10767885	0.079687548	0.074956344	0.40270327	0.14834358	0.064485167	0.0096507865	0.028991087	0.033172678	0.31769976	0.091412967	0.10183627	0.16402101	0.46384773	-0.087005325	0.48601765	0.56121915	0.18227425	0.16931391	0.46778587	0.038598282	0.48063147	0.54152714	0.058091857	0.23344824	0.88304906	-0.14765314	0.25480345	0.89534271	0.22166218	0.32950526	0.96388288	-0.092840237	0.32919063	0.9779312	0.14546128	0.16781047	1.0289314	0.027832312	0.33804247	1.4228922	-0.13017561	0.30807109	1.4331648	0.19691558	0.25733176	1.4779825	0.029110036	0.21383174	1.0700156	-0.20801156	0.13601644	1.1171689	0.29043315	0.43654772	0.91161819	-0.2004049	0.24922937	0.86933983	0.31611486
236	0.94	0.22952763	0.015421481	0.017057788	0.54749043	0.098383391	0.13989861	0.077976385	0.05858188	-0.016388968	0.39969825	0.11444063	0.15694875	0.10809678	0.079829556	0.075401312	0.42212779	0.14601143	0.064066777	0.0097414151	0.029459569	0.033932131	0.33828756	0.087142836	0.10151818	0.16586318	0.46376012	-0.086877116	0.4941643	0.56147188	0.18256073	0.17124552	0.46770281	0.0389224	0.48887409	0.54148936	0.058534563	0.2387445	0.8820477	-0.1475363	0.26143465	0.89432171	0.22194506	0.33550995	0.96267303	-0.092908173	0.3358016	0.97683416	0.14546455	0.17408857	1.0278693	0.028106228	0.3442862	1.4219356	-0.13026133	0.31440382	1.4320717	0.19689063	0.26359701	1.4769152	0.029132013	0.22078461	1.0685139	-0.20798856	0.14230427	1.1161833	0.29036778	0.44527979	0.91250107	-0.19964462	0.25523349	0.86839807	0.31686436
237	0.944	0.22953296	0.015396947	0.017039193	0.56812085	0.098571142	0.13920396	0.078001794	0.058870086	-0.015882509	0.41987065	0.11155096	0.15648551	0.10848183	0.079954704	0.075799088	0.44158586	0.14382199	0.063616544	0.0098296956	0.029929611	0.034574284	0.35898674	0.083094552	0.10117465	0.16788222	0.46362622	-0.086737151	0.50213787	0.5615404	0.18287168	0.173127	0.46755545	0.039334504	0.49711772	0.54131894	0.058928303	0.24417622	0.88090486	-0.1477055	0.26805967	0.89321392	0.22222948	0.34147795	0.961393	-0.092972478	0.34243782	0.97566076	0.14548103	0.18038078	1.0267497	0.028379845	0.35052507	1.4209063	-0.13036627	0.32074794	1.4309103	0.19687307	0.26990205	1.4757725	0.029148393	0.22776098	1.0669443	-0.20796961	0.14860824	1.1151072	0.29026127	0.45396984	0.91329495	-0.19888089	0.26127304	0.86737641	0.31760012
238	0.948	0.22954612	0.015370822	0.017025738	0.58869038	0.098816535	0.13846403	0.078066224	0.059145645	-0.015443619	0.44010602	0.10884572	0.15600985	0.10884067	0.080070952	0.07614539	0.46107226	0.14178444	0.063141193	0.0099143976	0.030411411	0.03510153	0.37983489	0.079265437	0.10073767	0.17008931	0.4634447	-0.08660665	0.50994372	0.56141144	0.18320701	0.17527222	0.46735333	0.039677285	0.50533729	0.54100457	0.059274853	0.24968419	0.87971579	-0.14801639	0.27466669	0.89202329	0.22251239	0.34742468	0.96005598	-0.093024288	0.34909496	0.9744098	0.14550546	0.18667688	1.0255715	0.028661674	0.35676513	1.4198094	-0.13048584	0.32709968	1.4296854	0.19686555	0.27622544	1.4745747	0.029152421	0.23475944	1.0653123	-0.20795457	0.15492733	1.113937	0.29012507	0.46261217	0.91399726	-0.19811931	0.26733907	0.86627508	0.31832112
